<mxfile host="app.diagrams.net" modified="2021-02-10T08:57:40.013Z" agent="5.0 (X11; Linux x86_64) AppleWebKit/537.36 (KHTML, like Gecko) Chrome/88.0.4324.150 Safari/537.36" etag="BGsMrj49nljSfbtWIp_8" version="14.3.0" type="github">
  <diagram id="8LueK6VzX5vKugh_-wbZ" name="Page-1">
    <mxGraphModel dx="1480" dy="777" grid="1" gridSize="10" guides="1" tooltips="1" connect="1" arrows="1" fold="1" page="1" pageScale="1" pageWidth="850" pageHeight="1100" math="0" shadow="0">
      <root>
        <mxCell id="0" />
        <mxCell id="1" parent="0" />
        <mxCell id="Cy7dQPZvyHQUf0ZGcS9_-2" value="Buku" style="shape=table;startSize=30;container=1;collapsible=1;childLayout=tableLayout;fixedRows=1;rowLines=0;fontStyle=1;align=center;resizeLast=1;" vertex="1" parent="1">
          <mxGeometry x="330" y="170" width="180" height="130" as="geometry" />
        </mxCell>
        <mxCell id="Cy7dQPZvyHQUf0ZGcS9_-6" value="" style="shape=partialRectangle;collapsible=0;dropTarget=0;pointerEvents=0;fillColor=none;top=0;left=0;bottom=0;right=0;points=[[0,0.5],[1,0.5]];portConstraint=eastwest;" vertex="1" parent="Cy7dQPZvyHQUf0ZGcS9_-2">
          <mxGeometry y="30" width="180" height="30" as="geometry" />
        </mxCell>
        <mxCell id="Cy7dQPZvyHQUf0ZGcS9_-7" value="Pinjam buku" style="shape=partialRectangle;connectable=0;fillColor=none;top=0;left=0;bottom=0;right=0;editable=1;overflow=hidden;" vertex="1" parent="Cy7dQPZvyHQUf0ZGcS9_-6">
          <mxGeometry width="80" height="30" as="geometry" />
        </mxCell>
        <mxCell id="Cy7dQPZvyHQUf0ZGcS9_-8" value="Judul" style="shape=partialRectangle;connectable=0;fillColor=none;top=0;left=0;bottom=0;right=0;align=left;spacingLeft=6;overflow=hidden;" vertex="1" parent="Cy7dQPZvyHQUf0ZGcS9_-6">
          <mxGeometry x="80" width="100" height="30" as="geometry" />
        </mxCell>
        <mxCell id="Cy7dQPZvyHQUf0ZGcS9_-9" value="" style="shape=partialRectangle;collapsible=0;dropTarget=0;pointerEvents=0;fillColor=none;top=0;left=0;bottom=0;right=0;points=[[0,0.5],[1,0.5]];portConstraint=eastwest;" vertex="1" parent="Cy7dQPZvyHQUf0ZGcS9_-2">
          <mxGeometry y="60" width="180" height="30" as="geometry" />
        </mxCell>
        <mxCell id="Cy7dQPZvyHQUf0ZGcS9_-10" value="" style="shape=partialRectangle;connectable=0;fillColor=none;top=0;left=0;bottom=0;right=0;editable=1;overflow=hidden;" vertex="1" parent="Cy7dQPZvyHQUf0ZGcS9_-9">
          <mxGeometry width="80" height="30" as="geometry" />
        </mxCell>
        <mxCell id="Cy7dQPZvyHQUf0ZGcS9_-11" value="Pengarang" style="shape=partialRectangle;connectable=0;fillColor=none;top=0;left=0;bottom=0;right=0;align=left;spacingLeft=6;overflow=hidden;" vertex="1" parent="Cy7dQPZvyHQUf0ZGcS9_-9">
          <mxGeometry x="80" width="100" height="30" as="geometry" />
        </mxCell>
        <mxCell id="Cy7dQPZvyHQUf0ZGcS9_-12" value="" style="shape=partialRectangle;collapsible=0;dropTarget=0;pointerEvents=0;fillColor=none;top=0;left=0;bottom=0;right=0;points=[[0,0.5],[1,0.5]];portConstraint=eastwest;" vertex="1" parent="Cy7dQPZvyHQUf0ZGcS9_-2">
          <mxGeometry y="90" width="180" height="30" as="geometry" />
        </mxCell>
        <mxCell id="Cy7dQPZvyHQUf0ZGcS9_-13" value="" style="shape=partialRectangle;connectable=0;fillColor=none;top=0;left=0;bottom=0;right=0;editable=1;overflow=hidden;" vertex="1" parent="Cy7dQPZvyHQUf0ZGcS9_-12">
          <mxGeometry width="80" height="30" as="geometry" />
        </mxCell>
        <mxCell id="Cy7dQPZvyHQUf0ZGcS9_-14" value="Tahun terbit" style="shape=partialRectangle;connectable=0;fillColor=none;top=0;left=0;bottom=0;right=0;align=left;spacingLeft=6;overflow=hidden;" vertex="1" parent="Cy7dQPZvyHQUf0ZGcS9_-12">
          <mxGeometry x="80" width="100" height="30" as="geometry" />
        </mxCell>
        <mxCell id="Cy7dQPZvyHQUf0ZGcS9_-15" value="Mahasiswa" style="shape=table;startSize=30;container=1;collapsible=1;childLayout=tableLayout;fixedRows=1;rowLines=0;fontStyle=1;align=center;resizeLast=1;" vertex="1" parent="1">
          <mxGeometry x="570" y="170" width="180" height="130" as="geometry" />
        </mxCell>
        <mxCell id="Cy7dQPZvyHQUf0ZGcS9_-16" value="" style="shape=partialRectangle;collapsible=0;dropTarget=0;pointerEvents=0;fillColor=none;top=0;left=0;bottom=0;right=0;points=[[0,0.5],[1,0.5]];portConstraint=eastwest;" vertex="1" parent="Cy7dQPZvyHQUf0ZGcS9_-15">
          <mxGeometry y="30" width="180" height="30" as="geometry" />
        </mxCell>
        <mxCell id="Cy7dQPZvyHQUf0ZGcS9_-17" value="Pinjam buku" style="shape=partialRectangle;connectable=0;fillColor=none;top=0;left=0;bottom=0;right=0;editable=1;overflow=hidden;" vertex="1" parent="Cy7dQPZvyHQUf0ZGcS9_-16">
          <mxGeometry width="80" height="30" as="geometry" />
        </mxCell>
        <mxCell id="Cy7dQPZvyHQUf0ZGcS9_-18" value="Nama" style="shape=partialRectangle;connectable=0;fillColor=none;top=0;left=0;bottom=0;right=0;align=left;spacingLeft=6;overflow=hidden;" vertex="1" parent="Cy7dQPZvyHQUf0ZGcS9_-16">
          <mxGeometry x="80" width="100" height="30" as="geometry" />
        </mxCell>
        <mxCell id="Cy7dQPZvyHQUf0ZGcS9_-19" value="" style="shape=partialRectangle;collapsible=0;dropTarget=0;pointerEvents=0;fillColor=none;top=0;left=0;bottom=0;right=0;points=[[0,0.5],[1,0.5]];portConstraint=eastwest;" vertex="1" parent="Cy7dQPZvyHQUf0ZGcS9_-15">
          <mxGeometry y="60" width="180" height="30" as="geometry" />
        </mxCell>
        <mxCell id="Cy7dQPZvyHQUf0ZGcS9_-20" value="" style="shape=partialRectangle;connectable=0;fillColor=none;top=0;left=0;bottom=0;right=0;editable=1;overflow=hidden;" vertex="1" parent="Cy7dQPZvyHQUf0ZGcS9_-19">
          <mxGeometry width="80" height="30" as="geometry" />
        </mxCell>
        <mxCell id="Cy7dQPZvyHQUf0ZGcS9_-21" value="NIM" style="shape=partialRectangle;connectable=0;fillColor=none;top=0;left=0;bottom=0;right=0;align=left;spacingLeft=6;overflow=hidden;" vertex="1" parent="Cy7dQPZvyHQUf0ZGcS9_-19">
          <mxGeometry x="80" width="100" height="30" as="geometry" />
        </mxCell>
        <mxCell id="Cy7dQPZvyHQUf0ZGcS9_-22" value="" style="shape=partialRectangle;collapsible=0;dropTarget=0;pointerEvents=0;fillColor=none;top=0;left=0;bottom=0;right=0;points=[[0,0.5],[1,0.5]];portConstraint=eastwest;" vertex="1" parent="Cy7dQPZvyHQUf0ZGcS9_-15">
          <mxGeometry y="90" width="180" height="30" as="geometry" />
        </mxCell>
        <mxCell id="Cy7dQPZvyHQUf0ZGcS9_-23" value="" style="shape=partialRectangle;connectable=0;fillColor=none;top=0;left=0;bottom=0;right=0;editable=1;overflow=hidden;" vertex="1" parent="Cy7dQPZvyHQUf0ZGcS9_-22">
          <mxGeometry width="80" height="30" as="geometry" />
        </mxCell>
        <mxCell id="Cy7dQPZvyHQUf0ZGcS9_-24" value="" style="shape=partialRectangle;connectable=0;fillColor=none;top=0;left=0;bottom=0;right=0;align=left;spacingLeft=6;overflow=hidden;" vertex="1" parent="Cy7dQPZvyHQUf0ZGcS9_-22">
          <mxGeometry x="80" width="100" height="30" as="geometry" />
        </mxCell>
        <mxCell id="Cy7dQPZvyHQUf0ZGcS9_-26" value="Pinjam Buku" style="shape=table;startSize=30;container=1;collapsible=1;childLayout=tableLayout;fixedRows=1;rowLines=0;fontStyle=1;align=center;resizeLast=1;" vertex="1" parent="1">
          <mxGeometry x="480" y="330" width="180" height="150" as="geometry" />
        </mxCell>
        <mxCell id="Cy7dQPZvyHQUf0ZGcS9_-27" value="" style="shape=partialRectangle;collapsible=0;dropTarget=0;pointerEvents=0;fillColor=none;top=0;left=0;bottom=0;right=0;points=[[0,0.5],[1,0.5]];portConstraint=eastwest;" vertex="1" parent="Cy7dQPZvyHQUf0ZGcS9_-26">
          <mxGeometry y="30" width="180" height="50" as="geometry" />
        </mxCell>
        <mxCell id="Cy7dQPZvyHQUf0ZGcS9_-28" value="Pinjam buku" style="shape=partialRectangle;connectable=0;fillColor=none;top=0;left=0;bottom=0;right=0;editable=1;overflow=hidden;" vertex="1" parent="Cy7dQPZvyHQUf0ZGcS9_-27">
          <mxGeometry width="80" height="50" as="geometry" />
        </mxCell>
        <mxCell id="Cy7dQPZvyHQUf0ZGcS9_-29" value="Menampilkan&#xa;daftar&#xa;peminjaman" style="shape=partialRectangle;connectable=0;fillColor=none;top=0;left=0;bottom=0;right=0;align=left;spacingLeft=6;overflow=hidden;" vertex="1" parent="Cy7dQPZvyHQUf0ZGcS9_-27">
          <mxGeometry x="80" width="100" height="50" as="geometry" />
        </mxCell>
        <mxCell id="Cy7dQPZvyHQUf0ZGcS9_-30" value="" style="shape=partialRectangle;collapsible=0;dropTarget=0;pointerEvents=0;fillColor=none;top=0;left=0;bottom=0;right=0;points=[[0,0.5],[1,0.5]];portConstraint=eastwest;" vertex="1" parent="Cy7dQPZvyHQUf0ZGcS9_-26">
          <mxGeometry y="80" width="180" height="30" as="geometry" />
        </mxCell>
        <mxCell id="Cy7dQPZvyHQUf0ZGcS9_-31" value="Mahasiswa" style="shape=partialRectangle;connectable=0;fillColor=none;top=0;left=0;bottom=0;right=0;editable=1;overflow=hidden;" vertex="1" parent="Cy7dQPZvyHQUf0ZGcS9_-30">
          <mxGeometry width="80" height="30" as="geometry" />
        </mxCell>
        <mxCell id="Cy7dQPZvyHQUf0ZGcS9_-32" value="" style="shape=partialRectangle;connectable=0;fillColor=none;top=0;left=0;bottom=0;right=0;align=left;spacingLeft=6;overflow=hidden;" vertex="1" parent="Cy7dQPZvyHQUf0ZGcS9_-30">
          <mxGeometry x="80" width="100" height="30" as="geometry" />
        </mxCell>
        <mxCell id="Cy7dQPZvyHQUf0ZGcS9_-33" value="" style="shape=partialRectangle;collapsible=0;dropTarget=0;pointerEvents=0;fillColor=none;top=0;left=0;bottom=0;right=0;points=[[0,0.5],[1,0.5]];portConstraint=eastwest;" vertex="1" parent="Cy7dQPZvyHQUf0ZGcS9_-26">
          <mxGeometry y="110" width="180" height="30" as="geometry" />
        </mxCell>
        <mxCell id="Cy7dQPZvyHQUf0ZGcS9_-34" value="" style="shape=partialRectangle;connectable=0;fillColor=none;top=0;left=0;bottom=0;right=0;editable=1;overflow=hidden;" vertex="1" parent="Cy7dQPZvyHQUf0ZGcS9_-33">
          <mxGeometry width="80" height="30" as="geometry" />
        </mxCell>
        <mxCell id="Cy7dQPZvyHQUf0ZGcS9_-35" value="" style="shape=partialRectangle;connectable=0;fillColor=none;top=0;left=0;bottom=0;right=0;align=left;spacingLeft=6;overflow=hidden;" vertex="1" parent="Cy7dQPZvyHQUf0ZGcS9_-33">
          <mxGeometry x="80" width="100" height="30" as="geometry" />
        </mxCell>
      </root>
    </mxGraphModel>
  </diagram>
</mxfile>
